<svg xmlns="http://www.w3.org/2000/svg" viewBox="0 0 32 32">
  <defs>
    <linearGradient id="g" x1="0%" y1="0%" x2="100%" y2="100%">
      <stop offset="0%" stop-color="#64748b"/>
      <stop offset="100%" stop-color="#475569"/>
    </linearGradient>
  </defs>
  <rect width="32" height="32" rx="8" fill="url(#g)"/>
  <!-- Gear outer ring -->
  <path d="M16 4.5 L17.8 7.2 C18.6 7 19.4 7 20.2 7.2 L22 4.5 L25.5 6.5 L24.8 9.5 C25.4 10.1 25.9 10.8 26.2 11.6 L29.5 12 L29.5 16 L26.2 16.4 C25.9 17.2 25.4 17.9 24.8 18.5 L25.5 21.5 L22 23.5 L20.2 20.8 C19.4 21 18.6 21 17.8 20.8 L16 23.5 L12.5 21.5 L13.2 18.5 C12.6 17.9 12.1 17.2 11.8 16.4 L8.5 16 L8.5 12 L11.8 11.6 C12.1 10.8 12.6 10.1 13.2 9.5 L12.5 6.5 Z" fill="white" opacity="0.95"/>
  <!-- Gear center hole -->
  <circle cx="19" cy="14" r="3.5" fill="#64748b"/>
  <circle cx="19" cy="14" r="2" fill="white" opacity="0.3"/>
</svg>
